<mxfile host="65bd71144e">
    <diagram name="Page-1" id="7e0a89b8-554c-2b80-1dc8-d5c74ca68de4">
        <mxGraphModel dx="2034" dy="924" grid="1" gridSize="10" guides="1" tooltips="1" connect="1" arrows="1" fold="1" page="1" pageScale="1" pageWidth="1100" pageHeight="850" background="none" math="0" shadow="0">
            <root>
                <mxCell id="0"/>
                <mxCell id="1" parent="0"/>
                <mxCell id="HXO4jJ1y9l5ZbeT_rfQ7-1" value="Raspberry Pi&lt;br&gt;Pico W" style="shadow=0;dashed=0;align=center;html=1;strokeWidth=1;shape=mxgraph.electrical.logic_gates.dual_inline_ic;labelNames=a,b,c,d,e,f,g,h,i,j,k,l,m,n,o,p,q,r,s,t;whiteSpace=wrap;rotation=90;horizontal=0;" parent="1" vertex="1">
                    <mxGeometry x="-580" y="100" width="120" height="400" as="geometry"/>
                </mxCell>
                <mxCell id="HXO4jJ1y9l5ZbeT_rfQ7-30" value="" style="endArrow=none;html=1;rounded=0;entryX=0.5;entryY=1;entryDx=0;entryDy=0;strokeColor=#FF3333;strokeWidth=3;exitX=1;exitY=0;exitDx=0;exitDy=90;exitPerimeter=0;" parent="1" source="HXO4jJ1y9l5ZbeT_rfQ7-1" target="HXO4jJ1y9l5ZbeT_rfQ7-7" edge="1">
                    <mxGeometry width="50" height="50" relative="1" as="geometry">
                        <mxPoint x="-867" y="405" as="sourcePoint"/>
                        <mxPoint x="-860" y="200" as="targetPoint"/>
                        <Array as="points">
                            <mxPoint x="-410" y="400"/>
                            <mxPoint x="-820" y="400"/>
                        </Array>
                    </mxGeometry>
                </mxCell>
                <mxCell id="HXO4jJ1y9l5ZbeT_rfQ7-34" value="" style="endArrow=none;html=1;rounded=0;exitX=0.5;exitY=1;exitDx=0;exitDy=0;strokeWidth=3;entryX=0;entryY=0;entryDx=0;entryDy=50;entryPerimeter=0;" parent="1" source="HXO4jJ1y9l5ZbeT_rfQ7-8" target="HXO4jJ1y9l5ZbeT_rfQ7-1" edge="1">
                    <mxGeometry width="50" height="50" relative="1" as="geometry">
                        <mxPoint x="-820" y="120" as="sourcePoint"/>
                        <mxPoint x="-530" y="120" as="targetPoint"/>
                        <Array as="points">
                            <mxPoint x="-860" y="210"/>
                            <mxPoint x="-370" y="210"/>
                        </Array>
                    </mxGeometry>
                </mxCell>
                <mxCell id="HXO4jJ1y9l5ZbeT_rfQ7-9" value="" style="rounded=0;whiteSpace=wrap;html=1;container=0;" parent="1" vertex="1">
                    <mxGeometry x="-880" y="40" width="160" height="80" as="geometry"/>
                </mxCell>
                <mxCell id="HXO4jJ1y9l5ZbeT_rfQ7-5" value="SCL" style="text;html=1;strokeColor=none;fillColor=none;align=center;verticalAlign=middle;whiteSpace=wrap;rounded=0;container=0;" parent="1" vertex="1">
                    <mxGeometry x="-800" y="100" width="40" height="20" as="geometry"/>
                </mxCell>
                <mxCell id="HXO4jJ1y9l5ZbeT_rfQ7-6" value="SDA" style="text;html=1;strokeColor=none;fillColor=none;align=center;verticalAlign=middle;whiteSpace=wrap;rounded=0;container=0;" parent="1" vertex="1">
                    <mxGeometry x="-760" y="100" width="40" height="20" as="geometry"/>
                </mxCell>
                <mxCell id="HXO4jJ1y9l5ZbeT_rfQ7-7" value="VCC" style="text;html=1;strokeColor=none;fillColor=none;align=center;verticalAlign=middle;whiteSpace=wrap;rounded=0;container=0;" parent="1" vertex="1">
                    <mxGeometry x="-840" y="100" width="40" height="20" as="geometry"/>
                </mxCell>
                <mxCell id="HXO4jJ1y9l5ZbeT_rfQ7-8" value="GND" style="text;html=1;strokeColor=none;fillColor=none;align=center;verticalAlign=middle;whiteSpace=wrap;rounded=0;container=0;" parent="1" vertex="1">
                    <mxGeometry x="-880" y="100" width="40" height="20" as="geometry"/>
                </mxCell>
                <mxCell id="HXO4jJ1y9l5ZbeT_rfQ7-10" value="SSD1306" style="text;html=1;strokeColor=default;fillColor=none;align=center;verticalAlign=middle;whiteSpace=wrap;rounded=0;container=0;" parent="1" vertex="1">
                    <mxGeometry x="-880" y="50" width="160" height="50" as="geometry"/>
                </mxCell>
                <mxCell id="HXO4jJ1y9l5ZbeT_rfQ7-59" value="" style="endArrow=none;html=1;rounded=0;strokeWidth=3;exitX=0.5;exitY=1;exitDx=0;exitDy=0;strokeColor=#0000FF;entryX=0;entryY=0;entryDx=0;entryDy=10;entryPerimeter=0;" parent="1" source="HXO4jJ1y9l5ZbeT_rfQ7-6" target="HXO4jJ1y9l5ZbeT_rfQ7-1" edge="1">
                    <mxGeometry width="50" height="50" relative="1" as="geometry">
                        <mxPoint x="-205" y="250" as="sourcePoint"/>
                        <mxPoint x="-745" y="165" as="targetPoint"/>
                        <Array as="points">
                            <mxPoint x="-740" y="165"/>
                            <mxPoint x="-330" y="170"/>
                        </Array>
                    </mxGeometry>
                </mxCell>
                <mxCell id="HXO4jJ1y9l5ZbeT_rfQ7-65" value="" style="endArrow=none;html=1;rounded=0;strokeWidth=3;exitX=0;exitY=0;exitDx=0;exitDy=30;strokeColor=#FFB366;entryX=0.75;entryY=1;entryDx=0;entryDy=0;exitPerimeter=0;" parent="1" source="HXO4jJ1y9l5ZbeT_rfQ7-1" target="HXO4jJ1y9l5ZbeT_rfQ7-5" edge="1">
                    <mxGeometry width="50" height="50" relative="1" as="geometry">
                        <mxPoint x="-666" y="187" as="sourcePoint"/>
                        <mxPoint x="-646" y="197" as="targetPoint"/>
                        <Array as="points">
                            <mxPoint x="-350" y="190"/>
                            <mxPoint x="-770" y="187"/>
                        </Array>
                    </mxGeometry>
                </mxCell>
            </root>
        </mxGraphModel>
    </diagram>
</mxfile>